<svg data-v-423bf9ae="" xmlns="http://www.w3.org/2000/svg" viewBox="0 0 404 90" class="iconLeft"><!----><!----><!----><g data-v-423bf9ae="" id="2ce5c8b8-81f5-40e7-8bfa-6ec61d3b9d33" fill="#19CEDA" transform="matrix(4.803843162490988,0,0,4.803843162490988,105.10008092750593,-5.704564232295205)"><path d="M9.18 4.31L6.23 12.03L3.28 4.31L1.02 4.31L1.02 14L2.55 14L2.55 6.17L5.53 14L6.93 14L9.91 6.17L9.91 14L11.44 14L11.44 4.31ZM16.63 6.99C14.50 6.99 12.95 8.48 12.95 10.56C12.95 12.63 14.50 14.13 16.63 14.13C18.76 14.13 20.30 12.63 20.30 10.56C20.30 8.48 18.76 6.99 16.63 6.99ZM16.62 8.23C17.91 8.23 18.83 9.21 18.83 10.56C18.83 11.91 17.91 12.88 16.62 12.88C15.34 12.88 14.42 11.91 14.42 10.56C14.42 9.21 15.34 8.23 16.62 8.23ZM26.26 7.11L24.22 12.59L22.18 7.11L20.65 7.11L23.37 14L25.07 14L27.79 7.11ZM30.42 5.25C30.42 4.75 30.04 4.41 29.51 4.41C28.97 4.41 28.60 4.75 28.60 5.25C28.60 5.74 28.97 6.09 29.51 6.09C30.04 6.09 30.42 5.74 30.42 5.25ZM28.80 7.11L28.80 14L30.23 14L30.23 7.11ZM38.92 10.57C38.91 8.48 37.38 6.99 35.25 6.99C33.12 6.99 31.57 8.48 31.57 10.56C31.57 12.63 33.12 14.13 35.25 14.13C36.95 14.13 38.42 13.03 38.81 11.51L37.35 11.51C37.09 12.33 36.25 12.95 35.27 12.95C34.08 12.95 33.17 12.15 32.98 11.00L38.88 11.00C38.91 10.86 38.92 10.71 38.92 10.57ZM35.27 8.16C36.40 8.16 37.31 8.88 37.55 9.90L33.03 9.90C33.28 8.86 34.15 8.16 35.27 8.16ZM44.21 6.99C43.18 6.99 42.29 7.41 41.69 8.11L41.69 7.11L40.26 7.11L40.26 16.80L41.69 16.80L41.69 13.01C42.29 13.71 43.18 14.13 44.21 14.13C46.16 14.13 47.57 12.63 47.57 10.56C47.57 8.48 46.16 6.99 44.21 6.99ZM43.90 12.88C42.62 12.88 41.69 11.91 41.69 10.56C41.69 9.21 42.62 8.23 43.90 8.23C45.18 8.23 46.10 9.21 46.10 10.56C46.10 11.91 45.18 12.88 43.90 12.88ZM48.93 4.31L48.93 14L50.36 14L50.36 4.31ZM53.75 5.25C53.75 4.75 53.37 4.41 52.84 4.41C52.29 4.41 51.93 4.75 51.93 5.25C51.93 5.74 52.29 6.09 52.84 6.09C53.37 6.09 53.75 5.74 53.75 5.25ZM52.12 7.11L52.12 14L53.55 14L53.55 7.11ZM62.17 14L59.47 10.53L62.15 7.11L60.48 7.11L58.44 9.74L56.39 7.11L54.74 7.11L57.41 10.54L54.70 14L56.36 14L58.44 11.31L60.52 14Z"></path></g><!----><g data-v-423bf9ae="" id="dddabba8-ab8b-4e24-a43f-47376fd35fca" transform="matrix(1.089588297211632,0,0,1.089588297211632,-3.331476703954941,-3.331476703954941)" stroke="none" fill="#19CEDA"><path d="M45 86.3C22.2 86.3 3.7 67.8 3.7 45S22.2 3.7 45 3.7c22.8 0 41.3 18.5 41.3 41.3 0 9.6-3.3 18.9-9.4 26.3-1.8 2.1-4.9 2.4-7 .7-2.1-1.8-2.4-4.9-.7-7 4.6-5.6 7.1-12.6 7.1-19.9 0-17.2-14-31.3-31.3-31.3-17.2 0-31.3 14-31.3 31.3s14 31.3 31.3 31.3c2.8 0 5 2.2 5 5s-2.2 4.9-5 4.9z"></path><path d="M58 23.4c-2.2 0-4.4.8-6 2.5-3.3 3.3-3.3 8.7 0 12.1 1.7 1.7 3.8 2.5 6 2.5s4.4-.8 6-2.5c3.3-3.3 3.3-8.7 0-12.1-1.6-1.6-3.8-2.5-6-2.5zM32 49.5c-2.2 0-4.4.8-6 2.5-3.3 3.3-3.3 8.7 0 12.1 1.7 1.7 3.8 2.5 6 2.5s4.4-.8 6-2.5c3.3-3.3 3.3-8.7 0-12.1-1.7-1.7-3.8-2.5-6-2.5zM58 49.5c-2.2 0-4.4.8-6 2.5-3.3 3.3-3.3 8.7 0 12.1 1.7 1.7 3.8 2.5 6 2.5s4.4-.8 6-2.5c3.3-3.3 3.3-8.7 0-12.1-1.6-1.7-3.8-2.5-6-2.5zM32 23.4c-2.2 0-4.4.8-6 2.5-3.3 3.3-3.3 8.7 0 12.1 1.7 1.7 3.9 2.5 6 2.5 2.2 0 4.4-.8 6-2.5 3.3-3.3 3.3-8.7 0-12.1-1.7-1.6-3.8-2.5-6-2.5z"></path><g><path d="M45 41.2c-1 0-1.9.4-2.7 1.1-1.5 1.5-1.5 3.9 0 5.4.7.7 1.7 1.1 2.7 1.1 1 0 1.9-.4 2.7-1.1 1.5-1.5 1.5-3.9 0-5.4-.8-.7-1.7-1.1-2.7-1.1z"></path></g><path d="M81.3 86.3H44.6c-2.8 0-5-2.2-5-5s2.2-5 5-5h36.7c2.8 0 5 2.2 5 5s-2.3 5-5 5z"></path></g><!----></svg>